<?xml version="1.0" encoding="UTF-8" standalone="no"?>
<svg
  width="58.355804mm"
  height="58.380013mm"
  viewBox="0 0 58.355804 58.380013"
  version="1.1"
  xmlns="http://www.w3.org/2000/svg"
>
  <g transform="translate(-80.055904,-132.68141)">
    <path
      style="fill: currentColor; stroke-width: 0.264583"
      d="m 85.653216,190.84888 c -2.040632,-0.39727 -3.977023,-1.86184 -5.025184,-3.80076 l -0.572128,-1.05833 v -24.20938 c 0,-22.6549 0.03005,-24.26436 0.467969,-25.0657 0.8176,-1.49611 2.132637,-2.78013 3.498855,-3.41635 l 1.324843,-0.61695 23.680209,0.003 c 23.24442,0.003 23.70212,0.0131 24.87083,0.54155 2.27015,1.02642 3.63337,2.80555 4.20074,5.48235 0.41648,1.96495 0.41648,44.1788 0,46.14375 -0.5772,2.72318 -1.9203,4.44527 -4.33303,5.55572 l -1.32292,0.60886 -22.75416,0.0408 c -13.358398,0.024 -23.283479,-0.0623 -24.036024,-0.20877 z m 47.467324,-4.38371 c 1.63722,-1.37763 1.57182,-0.3506 1.57182,-24.68476 0,-24.33416 0.0654,-23.30712 -1.57182,-24.68475 l -0.85003,-0.71525 H 109.02778 85.785047 l -0.850027,0.71525 c -1.637133,1.37756 -1.571824,0.35298 -1.571824,24.65903 0,15.09389 0.09047,22.45506 0.282208,22.96111 0.340068,0.89753 1.242552,1.91265 1.96675,2.2122 0.291042,0.12038 10.908235,0.22642 23.593766,0.23564 l 23.06459,0.0168 0.85003,-0.71525 z M 88.919446,176.06792 v -1.85209 h 1.852084 1.852083 v 1.85209 1.85208 H 90.77153 88.919446 Z m 6.879167,1.66437 c -0.788519,-0.28993 -1.322917,-0.96699 -1.322917,-1.67607 0,-0.39789 0.20836,-0.9771 0.463021,-1.28714 l 0.463021,-0.56371 16.526342,0.0714 16.52634,0.0714 0.38153,0.6798 c 0.52629,0.93772 0.20823,1.99546 -0.74887,2.49039 -0.67017,0.34656 -2.91184,0.39882 -16.33418,0.3808 -8.55658,-0.0115 -15.736006,-0.0866 -15.954287,-0.16682 z m -6.879167,-11.18937 v -1.85209 h 1.852084 1.852083 v 1.85209 1.85208 H 90.77153 88.919446 Z m 6.131538,1.23971 c -0.718895,-0.76522 -0.738777,-1.86998 -0.04612,-2.56263 0.517687,-0.51769 0.881944,-0.52917 16.790736,-0.52917 h 16.26156 l 0.53948,0.57906 c 0.68806,0.73855 0.68511,1.54568 -0.009,2.42797 l -0.54838,0.69714 H 111.83282 95.626271 Z m -6.131538,-10.76472 v -1.85208 h 1.852084 1.852083 v 1.85208 1.85208 H 90.77153 88.919446 Z m 6.085417,1.32292 c -0.713759,-0.71376 -0.676235,-1.88626 0.0832,-2.59972 l 0.612366,-0.57528 h 16.068411 16.06841 l 0.64943,0.64943 c 0.78661,0.78661 0.83536,1.81047 0.12027,2.52557 -0.5177,0.51769 -0.88195,0.52916 -16.80104,0.52916 -15.919101,0 -16.283351,-0.0115 -16.801045,-0.52916 z m -6.085417,-10.84792 v -1.85208 h 1.852084 1.852083 v 1.85208 1.85208 H 90.77153 88.919446 Z m 5.994133,1.36823 c -0.583047,-0.64426 -0.554074,-1.69528 0.06791,-2.4634 l 0.50579,-0.62462 h 16.318631 16.31862 l 0.50579,0.62462 c 0.65278,0.80616 0.64365,1.75106 -0.0234,2.41809 -0.51776,0.51776 -0.88195,0.52916 -16.89233,0.52916 -15.516341,0 -16.385818,-0.025 -16.801038,-0.48385 z"
    />
  </g>
</svg>
